<svg viewBox="0 0 24 24" class="w-6 h-6 text-white" fill="white" xmlns="http://www.w3.org/2000/svg"><path d="M4 5C4 4.44772 4.44772 4 5 4H19C19.5523 4 20 4.44772 20 5V19C20 19.5523 19.5523 20 19 20H5C4.44772 20 4 19.5523 4 19V5Z" stroke="currentColor" stroke-width="2"></path><path d="M9 8.5C9 8.22386 9.22386 8 9.5 8H11.5C11.7761 8 12 8.22386 12 8.5V11.5C12 11.7761 11.7761 12 11.5 12H9.5C9.22386 12 9 11.7761 9 11.5V8.5Z" fill="purple"></path><path d="M13 14C13 13.4477 13.4477 13 14 13H16C16.5523 13 17 13.4477 17 14V16C17 16.5523 16.5523 17 16 17H14C13.4477 17 13 16.5523 13 16V14Z" fill="purple"></path></svg> 